<?xml version="1.0" encoding="iso-8859-1"?>
<!-- Generator: Adobe Illustrator 19.0.0, SVG Export Plug-In . SVG Version: 6.00 Build 0)  -->
<svg version="1.1" id="Capa_1" xmlns="http://www.w3.org/2000/svg" xmlns:xlink="http://www.w3.org/1999/xlink" x="0px" y="0px"
	 viewBox="0 0 511.999 511.999" style="enable-background:new 0 0 511.999 511.999;" xml:space="preserve">
<path style="fill:#C9F3FF;" d="M314.715,424.884c-30.371-30.371-30.371-79.612,0-109.984c30.371-30.371,79.612-30.371,109.984,0
	L314.715,424.884z"/>
<path style="fill:#72D8FF;" d="M124.069,151.01l26.941-26.941c15.122-15.122,39.64-15.122,54.762,0l122.505,122.504
	c15.122,15.122,15.122,39.64,0,54.762l-26.941,26.941c-15.122,15.122-39.64,15.122-54.763,0L124.069,205.773
	C108.947,190.651,108.947,166.133,124.069,151.01z"/>
<g>
	<path style="fill:#FEDA9B;" d="M391.249,15.843l45.256,45.256c7.81,7.81,7.81,20.475,0,28.285l-90.512,90.512
		c-7.81,7.81-20.475,7.81-28.285,0l-45.256-45.256c-7.81-7.81-7.81-20.475,0-28.285l90.512-90.512
		C370.774,8.033,383.437,8.033,391.249,15.843z"/>
	<path style="fill:#FEDA9B;" d="M61.099,436.504l-45.256-45.256c-7.81-7.81-7.81-20.475,0-28.285l90.512-90.513
		c7.81-7.81,20.475-7.81,28.285,0l45.256,45.256c7.81,7.81,7.81,20.475,0,28.285l-90.512,90.512
		C81.573,444.315,68.91,444.315,61.099,436.504z"/>
</g>
<path d="M442.107,410.996c0,17.154-13.956,31.111-31.111,31.111c-5.523,0-10,4.478-10,10s4.477,10,10,10
	c28.183,0,51.111-22.929,51.111-51.111c0-5.522-4.477-10-10-10S442.107,405.473,442.107,410.996z"/>
<path d="M501.999,400.995c-5.523,0-10,4.478-10,10c0,44.664-36.337,81.002-81.002,81.002c-5.523,0-10,4.478-10,10s4.477,10,10,10
	c55.693,0,101.003-45.31,101.003-101.003C511.999,405.473,507.522,400.995,501.999,400.995z"/>
<path d="M180.196,193.385c-3.905-3.903-10.237-3.904-14.142,0c-3.905,3.905-3.905,10.237,0,14.143l50.894,50.895
	c1.953,1.952,4.512,2.929,7.071,2.929s5.119-0.977,7.071-2.929c3.905-3.905,3.906-10.237,0-14.143L180.196,193.385z"/>
<path d="M249.462,266.802c-2.63,0-5.21,1.061-7.07,2.92c-1.86,1.86-2.93,4.44-2.93,7.08c0,2.63,1.07,5.21,2.93,7.07
	c1.86,1.86,4.44,2.93,7.07,2.93c2.64,0,5.22-1.069,7.07-2.93c1.87-1.86,2.93-4.44,2.93-7.07c0-2.64-1.06-5.22-2.93-7.08
	C254.682,267.863,252.102,266.802,249.462,266.802z"/>
<path d="M383.942,369.799l47.827-47.827c3.905-3.905,3.905-10.237,0-14.143c-16.577-16.577-38.619-25.708-62.064-25.708
	c-7.271,0-14.405,0.882-21.286,2.588c0.783-3.49,1.198-7.089,1.198-10.753c0-13.015-5.068-25.25-14.27-34.453l-54.181-54.181
	l13.91-13.91l15.556,15.556c5.667,5.666,13.2,8.787,21.214,8.787c8.014,0,15.547-3.121,21.214-8.787l90.512-90.512
	c5.667-5.666,8.787-13.199,8.787-21.214s-3.121-15.548-8.787-21.215L398.32,8.772l0,0c-11.696-11.695-30.729-11.694-42.427,0
	L265.38,99.284c-5.666,5.667-8.786,13.2-8.786,21.215s3.121,15.547,8.786,21.214l15.556,15.556l-13.91,13.91l-54.18-54.181
	c-9.203-9.202-21.439-14.271-34.453-14.271s-25.251,5.068-34.453,14.271l-26.941,26.941c-9.202,9.203-14.27,21.439-14.27,34.453
	s5.068,25.249,14.27,34.452l54.181,54.182l-13.91,13.91l-15.556-15.556c-11.697-11.697-30.73-11.697-42.428,0L8.773,355.891
	c-11.697,11.697-11.697,30.73,0,42.428l45.256,45.256c5.849,5.849,13.531,8.772,21.214,8.772s15.365-2.924,21.214-8.772
	l90.512-90.512c11.697-11.697,11.697-30.73,0-42.428l-15.556-15.556l13.91-13.91l54.181,54.181
	c9.202,9.202,21.439,14.271,34.453,14.271c3.637,0,7.209-0.41,10.675-1.181c-7.251,28.958,0.412,60.916,23.013,83.516
	c1.953,1.952,4.512,2.929,7.071,2.929s5.119-0.977,7.071-2.929l48.013-48.013l9.999,9.999c1.953,1.952,4.512,2.929,7.071,2.929
	c2.559,0,5.119-0.977,7.071-2.929c3.905-3.905,3.905-10.237,0-14.143L383.942,369.799z M338.92,172.824
	c-1.889,1.889-4.399,2.93-7.071,2.93c-2.671,0-5.182-1.041-7.071-2.93l-15.556-15.556l25.456-25.456l22.628,22.628L338.92,172.824z
	 M337.506,55.442l22.628,22.629l-25.456,25.456L312.05,80.899L337.506,55.442z M374.277,92.214l22.627,22.628l-25.456,25.456
	L348.82,117.67L374.277,92.214z M432.362,75.241c0,2.671-1.04,5.182-2.929,7.07l-18.385,18.386L388.42,78.069l25.457-25.457
	l15.556,15.556C431.322,70.059,432.362,72.569,432.362,75.241z M370.034,22.914c1.95-1.949,4.51-2.924,7.071-2.924
	s5.122,0.975,7.071,2.924l15.556,15.556l-25.457,25.457l-22.628-22.629L370.034,22.914z M276.593,120.498
	c0-2.672,1.04-5.183,2.929-7.071l18.385-18.386l22.628,22.628l-25.456,25.457l-15.557-15.557
	C277.633,125.68,276.593,123.169,276.593,120.498z M113.427,279.523c1.949-1.949,4.51-2.925,7.071-2.925s5.122,0.976,7.071,2.925
	l15.556,15.556l-25.456,25.456l-22.628-22.628L113.427,279.523z M114.841,396.905l-22.628-22.628l25.457-25.457l22.628,22.628
	L114.841,396.905z M78.07,360.134l-22.628-22.628l25.457-25.457l22.628,22.628L78.07,360.134z M22.914,370.035L41.3,351.65
	l22.628,22.627l-25.457,25.457l-15.556-15.556C19.015,380.279,19.015,373.934,22.914,370.035z M82.313,429.433
	c-3.898,3.898-10.243,3.898-14.142,0l-15.556-15.556l25.457-25.457l22.628,22.628L82.313,429.433z M172.824,338.921l-18.385,18.386
	l-22.628-22.628l25.456-25.456l15.556,15.556C176.725,328.677,176.725,335.023,172.824,338.921z M253.646,321.206L131.14,198.701
	c-11.199-11.198-11.199-29.421,0-40.619l26.941-26.941c5.425-5.425,12.637-8.413,20.31-8.413s14.885,2.988,20.311,8.413l61.25,61.25
	c0.001,0.001,0.002,0.002,0.002,0.003s0.002,0.001,0.003,0.002l61.25,61.251c5.425,5.425,8.413,12.638,8.413,20.311
	s-2.987,14.884-8.413,20.31l-26.94,26.941c-5.425,5.425-12.638,8.413-20.311,8.413S259.071,326.631,253.646,321.206z
	 M315.229,410.227c-8.629-11.603-13.292-25.61-13.292-40.334c0-18.102,7.049-35.12,19.85-47.92
	c12.799-12.801,29.818-19.851,47.92-19.851c14.724,0,28.731,4.663,40.334,13.293L315.229,410.227z"/>
<path d="M409.616,419.626c2.64,0,5.21-1.07,7.08-2.93c1.86-1.87,2.93-4.44,2.93-7.07c0-2.64-1.07-5.21-2.93-7.08
	c-1.87-1.86-4.44-2.92-7.08-2.92c-2.63,0-5.2,1.06-7.07,2.92c-1.86,1.87-2.93,4.44-2.93,7.08c0,2.63,1.07,5.2,2.93,7.07
	C404.416,418.556,406.986,419.626,409.616,419.626z"/>
<g>
</g>
<g>
</g>
<g>
</g>
<g>
</g>
<g>
</g>
<g>
</g>
<g>
</g>
<g>
</g>
<g>
</g>
<g>
</g>
<g>
</g>
<g>
</g>
<g>
</g>
<g>
</g>
<g>
</g>
</svg>
